<?xml version="1.0" encoding="UTF-8" standalone="no"?>
<!-- Created with Inkscape (http://www.inkscape.org/) -->

<svg
   width="153.17592mm"
   height="147.77072mm"
   viewBox="0 0 153.17592 147.77072"
   version="1.1"
   id="svg5"
   inkscape:version="1.1.2 (0a00cf5339, 2022-02-04)"
   sodipodi:docname="lwt.svg"
   xmlns:inkscape="http://www.inkscape.org/namespaces/inkscape"
   xmlns:sodipodi="http://sodipodi.sourceforge.net/DTD/sodipodi-0.dtd"
   xmlns="http://www.w3.org/2000/svg"
   xmlns:svg="http://www.w3.org/2000/svg">
  <sodipodi:namedview
     id="namedview7"
     pagecolor="#ffffff"
     bordercolor="#666666"
     borderopacity="1.0"
     inkscape:pageshadow="2"
     inkscape:pageopacity="0.0"
     inkscape:pagecheckerboard="0"
     inkscape:document-units="mm"
     showgrid="false"
     inkscape:zoom="0.69664703"
     inkscape:cx="-88.997724"
     inkscape:cy="230.38927"
     inkscape:window-width="1846"
     inkscape:window-height="1016"
     inkscape:window-x="0"
     inkscape:window-y="0"
     inkscape:window-maximized="1"
     inkscape:current-layer="layer1" />
  <defs
     id="defs2" />
  <g
     inkscape:label="Layer 1"
     inkscape:groupmode="layer"
     id="layer1"
     transform="translate(-33.397571,-35.580566)">
    <path
       style="fill:#7bd053;fill-opacity:1;stroke:#099409;stroke-width:4;stroke-linecap:butt;stroke-linejoin:miter;stroke-miterlimit:4;stroke-dasharray:none;stroke-opacity:1"
       d="m 144.47654,122.54632 c 0,0 40.19053,-34.332926 40.0966,-40.992678 -0.1037,-7.35284 -49.86325,-45.156712 -56.83578,-43.918293 -6.06165,1.076633 -15.77057,28.096158 -15.77057,28.096158 L 99.681452,80.398678 54.990961,90.309707 c 0,0 -17.863525,0.55638 -19.529033,5.831673 -1.628718,5.15876 43.936832,44.40569 51.592814,48.666 5.134834,2.85737 57.421798,-22.26106 57.421798,-22.26106 z"
       id="path54"
       sodipodi:nodetypes="csscccssc" />
    <path
       style="fill:#d4eefb;fill-opacity:1;stroke:#38a2ec;stroke-width:4.565;stroke-linecap:butt;stroke-linejoin:miter;stroke-miterlimit:4;stroke-dasharray:none;stroke-opacity:1"
       d="M 43.643481,94.995353 87.284863,133.94645 135.56723,115.23356 171.16662,80.017069 125.41141,45.471968 94.786594,79.65305 Z"
       id="path4095" />
    <path
       style="fill:#9cd0fa;fill-opacity:1;stroke:none;stroke-width:0.264583px;stroke-linecap:butt;stroke-linejoin:miter;stroke-opacity:1"
       d="m 87.284863,133.94645 c 0,0 10.579634,-22.96782 30.946867,-24.93793 20.36724,-1.97011 12.16894,-1.11829 12.16894,-1.11829 0,0 16.40814,-23.578365 36.87504,-26.741239 -2.65409,9.660667 -32.67361,32.390359 -32.67361,32.390359 z"
       id="path15483"
       sodipodi:nodetypes="cscccc" />
    <path
       style="fill:none;stroke:#9cd0fa;stroke-width:1.565;stroke-linecap:round;stroke-linejoin:miter;stroke-miterlimit:4;stroke-dasharray:1.565, 4.695;stroke-dashoffset:0;stroke-opacity:1"
       d="M 130.40067,107.89023 99.681449,80.398677"
       id="path52468" />
    <path
       style="fill:none;stroke:#d4eefb;stroke-width:0.865;stroke-linecap:round;stroke-linejoin:miter;stroke-miterlimit:4;stroke-dasharray:0.865, 2.595;stroke-dashoffset:0;stroke-opacity:1"
       d="m 130.40067,107.89023 5.16656,7.34333"
       id="path54522" />
    <path
       style="fill:none;fill-opacity:1;stroke:#38a2ec;stroke-width:4.565;stroke-linecap:butt;stroke-linejoin:miter;stroke-miterlimit:4;stroke-dasharray:none;stroke-opacity:1"
       d="M 43.643481,94.995352 87.284863,133.94645 135.56723,115.23356 171.16662,80.017069 125.41141,45.471968 94.786594,79.65305 Z"
       id="path4095-8" />
    <text
       xml:space="preserve"
       style="font-style:normal;font-weight:normal;font-size:50.8px;line-height:1.25;font-family:sans-serif;letter-spacing:7.42421px;fill:#000000;fill-opacity:1;stroke:none;stroke-width:4.365;stroke-miterlimit:4;stroke-dasharray:none"
       x="36.195255"
       y="183.35129"
       id="text22143"><tspan
         sodipodi:role="line"
         id="tspan22141"
         style="font-style:normal;font-variant:normal;font-weight:bold;font-stretch:normal;font-size:50.8px;font-family:serif;-inkscape-font-specification:'serif Bold';stroke:#ffffff;stroke-width:4.365;stroke-linecap:butt;stroke-linejoin:bevel;stroke-miterlimit:4;stroke-dasharray:none;stroke-opacity:1;paint-order:stroke fill markers"
         x="36.195255"
         y="183.35129">LWT</tspan></text>
    <path
       style="fill:none;stroke:#9cd0fa;stroke-width:4;stroke-linecap:round;stroke-linejoin:miter;stroke-miterlimit:4;stroke-dasharray:none;stroke-opacity:1"
       d="m 86.498875,118.60042 c 0,0 2.63414,-8.0258 9.15286,-11.12289 5.212955,-2.4767 13.967325,-3.05964 13.967325,-3.05964 m 28.43657,19.20551"
       id="path47087"
       sodipodi:nodetypes="csc" />
    <path
       style="fill:none;stroke:#9cd0fa;stroke-width:4;stroke-linecap:round;stroke-linejoin:miter;stroke-miterlimit:4;stroke-dasharray:none;stroke-opacity:1"
       d="m 76.609932,110.13107 c 0,0 2.63414,-8.0258 9.15286,-11.122892 5.212955,-2.4767 13.967325,-3.05964 13.967325,-3.05964 m 28.436563,19.205512"
       id="path47087-0"
       sodipodi:nodetypes="csc" />
    <path
       style="fill:none;stroke:#9cd0fa;stroke-width:4;stroke-linecap:round;stroke-linejoin:miter;stroke-miterlimit:4;stroke-dasharray:none;stroke-opacity:1"
       d="m 67.6432,103.34593 c 0,0 2.63414,-8.025795 9.15286,-11.122885 5.212955,-2.4767 13.967325,-3.05964 13.967325,-3.05964 m 28.436575,19.205505"
       id="path47087-1"
       sodipodi:nodetypes="csc" />
    <path
       style="fill:none;stroke:#9cd0fa;stroke-width:4;stroke-linecap:round;stroke-linejoin:miter;stroke-miterlimit:4;stroke-dasharray:none;stroke-opacity:1"
       d="m 129.33325,95.955504 c 0,0 3.41609,-8.87404 8.67144,-13.969874 4.15531,-4.029184 10.98088,-4.129298 10.98088,-4.129298"
       id="path47087-2"
       sodipodi:nodetypes="csc" />
    <path
       style="fill:none;stroke:#9cd0fa;stroke-width:4;stroke-linecap:round;stroke-linejoin:miter;stroke-miterlimit:4;stroke-dasharray:none;stroke-opacity:1"
       d="m 120.7656,86.977371 c 0,0 3.41609,-8.87404 8.67144,-13.969874 4.15531,-4.029184 10.98088,-4.129298 10.98088,-4.129298"
       id="path47087-2-8"
       sodipodi:nodetypes="csc" />
    <path
       style="fill:none;stroke:#9cd0fa;stroke-width:4;stroke-linecap:round;stroke-linejoin:miter;stroke-miterlimit:4;stroke-dasharray:none;stroke-opacity:1"
       d="m 111.11419,78.701985 c 0,0 3.41609,-8.87404 8.67144,-13.969874 4.15531,-4.029184 10.98088,-4.129298 10.98088,-4.129298"
       id="path47087-2-5"
       sodipodi:nodetypes="csc" />
    <path
       style="fill:#ed8685;fill-opacity:1;stroke:#e35d5b;stroke-width:4;stroke-linecap:butt;stroke-linejoin:miter;stroke-miterlimit:4;stroke-dasharray:none;stroke-opacity:1"
       d="m 75.01125,72.816613 c 3.539543,6.392644 32.34593,29.626187 34.60781,31.601277 3.36894,-0.0806 8.58968,-1.04767 9.85579,-3.19435 -3.89162,-3.939715 -22.847221,-23.066152 -34.502085,-28.95368 -3.388906,-0.105187 -7.289031,0.488965 -9.961515,0.546753 z"
       id="path6211"
       sodipodi:nodetypes="ccccc" />
  </g>
</svg>
